<svg xmlns="http://www.w3.org/2000/svg" width="20" height="20" viewBox="0 0 30 30"><g fill="none" fill-rule="evenodd"><rect width="30" height="30" fill="#FFAB00"/><path fill="#FFF" fill-rule="nonzero" d="M19.9472574,13.8683713 C19.9472574,13.9521263 19.9050449,14.0466018 19.8427312,14.1089155 L14.9641729,18.9874738 C14.9011892,19.0504575 14.8073836,19.092 14.7236287,19.092 C14.6398737,19.092 14.5453982,19.0497875 14.4830845,18.9874738 L9.60452618,14.1089155 C9.54154245,14.0459318 9.5,13.9521263 9.5,13.8683713 C9.5,13.7846164 9.54221249,13.6901408 9.60452618,13.6278271 L10.1278271,13.1045262 C10.1908108,13.0415425 10.2745658,13 10.3683713,13 C10.4521263,13 10.5466018,13.0422125 10.6089155,13.1045262 L14.7236287,17.2192393 L18.8383418,13.1045262 C18.9013256,13.0415425 18.9951311,13 19.0788861,13 C19.162641,13 19.2571166,13.0422125 19.3194303,13.1045262 L19.8427312,13.6278271 C19.9057149,13.6908108 19.9472574,13.7846164 19.9472574,13.8683713 Z"/></g></svg>